<svg width="80" height="80" viewBox="0 0 80 80" fill="none" xmlns="http://www.w3.org/2000/svg">
<g clip-path="url(#clip0_143_221)">
<path d="M14.1667 0H65.8333C73.6667 0 80 6.49573 80 14.5299V65.4701C80 73.5043 73.6667 80 65.8333 80H14.1667C6.33333 80 0 73.5043 0 65.4701V14.5299C0 6.49573 6.33333 0 14.1667 0Z" fill="#DED5F6"/>
<path d="M32.1334 47.8634H19.7334L17.2 55.9317C17.1334 56.2394 16.8667 56.4445 16.5667 56.4104H10.3C9.93337 56.4104 9.83337 56.2052 9.93337 55.795L20.6667 24.2394C20.7667 23.8975 20.8667 23.5898 21 23.1796C21.1334 22.4616 21.2 21.7095 21.2 20.9574C21.1667 20.7864 21.3 20.6155 21.4667 20.5813C21.5 20.5813 21.5334 20.5813 21.5667 20.5813H30.1C30.3334 20.5813 30.5 20.6839 30.5334 20.8548L42.7 55.8975C42.8 56.2736 42.7 56.4445 42.3667 56.4445H35.4C35.1667 56.4787 34.9334 56.3078 34.8667 56.0685L32.1334 47.8634ZM21.6667 41.0599H30.1334C29.9334 40.342 29.6667 39.4873 29.3667 38.5984C29.0667 37.6753 28.7667 36.6839 28.4667 35.6582C28.1334 34.5984 27.8334 33.5728 27.5 32.5129C27.1667 31.4531 26.8667 30.4616 26.6 29.4702C26.3334 28.5129 26.1 27.624 25.8667 26.8035H25.8C25.5 28.2736 25.1334 29.7437 24.6667 31.2138C24.1667 32.8548 23.6667 34.5642 23.1334 36.2736C22.7 38.0172 22.1667 39.624 21.6667 41.0599Z" fill="#7B7BF1"/>
<path d="M62.4667 44.7181H51.9C52.0334 45.778 52.3667 46.8378 52.9334 47.7609C53.5334 48.684 54.3667 49.4019 55.3667 49.8122C56.7 50.3934 58.1667 50.701 59.6334 50.6669C60.8 50.6327 61.9667 50.5301 63.1 50.2908C64.1334 50.154 65.1334 49.8805 66.0667 49.5045C66.2334 49.3677 66.3334 49.4361 66.3334 49.778V55.0087C66.3334 55.1455 66.3 55.2822 66.2667 55.419C66.2 55.5216 66.1334 55.5899 66.0334 55.6583C64.9667 56.1369 63.8667 56.4788 62.7 56.684C61.1334 56.9916 59.5667 57.1284 57.9667 57.0942C55.4334 57.0942 53.3 56.684 51.5667 55.8976C49.9334 55.1797 48.5 54.0515 47.3667 52.6498C46.3 51.3164 45.5334 49.8122 45.0667 48.1711C44.6 46.5643 44.3667 44.8891 44.3667 43.1797C44.3667 41.3335 44.6334 39.5216 45.2 37.7438C45.7334 36.0344 46.5667 34.4617 47.7 33.06C48.8 31.6925 50.1667 30.5985 51.7334 29.8122C53.3 29.0258 55.1667 28.7523 57.3 28.7523C59.0667 28.7181 60.8334 29.06 62.4667 29.8122C63.8334 30.4275 65.0334 31.3506 65.9667 32.5472C66.8334 33.7096 67.5334 35.0087 67.9667 36.4446C68.4 37.8122 68.6 39.2139 68.6 40.6156C68.6 41.4361 68.5667 42.154 68.5334 42.8036C68.4667 43.4532 68.4334 43.9318 68.4 44.2395C68.3667 44.4788 68.1667 44.684 67.9334 44.684C67.7334 44.684 67.3667 44.7181 66.8334 44.7523C66.3 44.8207 65.6667 44.8549 64.9 44.8549C64.1334 44.8549 63.3334 44.7181 62.4667 44.7181ZM51.9 39.7267H58.9334C59.8 39.7267 60.4334 39.7267 60.8334 39.6925C61.1 39.6583 61.3667 39.5899 61.6 39.419V39.0771C61.6 38.6327 61.5334 38.2224 61.4 37.8122C60.8 35.8976 59.0334 34.5985 57.0667 34.6669C55.2334 34.5643 53.5 35.5557 52.6334 37.2651C52.2334 38.0515 52 38.872 51.9 39.7267Z" fill="#7B7BF1"/>
</g>
<defs>
<clipPath id="clip0_143_221">
<rect width="80" height="80" fill="white"/>
</clipPath>
</defs>
</svg>
