<svg width="500" height="292" viewBox="0 0 500 292" fill="none" xmlns="http://www.w3.org/2000/svg">
<path class="hyon_line" d="M70.9328 133.399C70.6465 132.761 70.1358 131.878 69.4007 130.751C68.8281 129.475 68.0735 128.817 67.1369 128.776C64.171 128.646 61.072 129.84 57.8398 132.357C54.7702 134.725 51.756 137.643 48.7972 141.111C46.0009 144.429 43.5136 147.839 41.3353 151.341C39.3131 154.85 38.0257 157.609 37.4732 159.618C36.7645 161.62 36.3519 164.026 36.2353 166.836C36.1187 169.646 35.7744 172.29 35.2024 174.767C34.7865 177.251 33.8405 179.321 32.3643 180.977C31.0442 182.64 28.7451 183.399 25.467 183.256C23.4377 183.167 22.049 182.716 21.3009 181.901C20.7154 180.937 20.4647 179.44 20.549 177.41C21.9527 169.965 23.1452 163.839 24.1266 159.034C25.264 154.235 26.2195 150.054 26.9929 146.491C27.9289 142.778 28.7804 139.218 29.5473 135.811C30.4768 132.255 31.5136 127.999 32.6575 123.044C33.8014 118.09 35.0688 112.045 36.4595 104.912C37.8567 97.6223 39.5691 88.3914 41.5966 77.2194C41.6938 74.8777 41.986 71.6061 42.4731 67.4046C42.9667 63.0471 43.7042 58.4655 44.6856 53.6601C45.8295 48.7054 47.2076 43.7609 48.8198 38.8267C50.4386 33.7364 52.3468 29.2061 54.5446 25.2359C56.8984 21.2725 59.5321 18.1033 62.4456 15.7284C65.3656 13.1974 68.6987 12.0139 72.4452 12.1778C75.0989 12.2939 77.1673 13.3228 78.6506 15.2645C80.2964 17.0569 81.4578 19.2191 82.1346 21.7511C82.9675 24.2899 83.4038 26.9678 83.4432 29.7847C83.4892 32.4455 83.4765 34.6345 83.4053 36.3518C83.2433 40.2547 82.7756 43.9878 82.0021 47.5512C81.2352 50.9584 80.3089 54.4368 79.2233 57.9865C78.1441 61.3801 76.9837 64.8483 75.742 68.3911C74.5067 71.7778 73.4276 75.1714 72.5045 78.5718L56.3332 106.485L47.1457 124.382L48.2095 127.009C51.6496 123.25 55.1289 120.43 58.6474 118.551C62.1723 116.516 66.5169 115.455 71.6812 115.368C74.0291 115.314 75.9512 116.102 77.4475 117.731C79.0998 119.368 80.4205 121.459 81.4095 124.004C82.405 126.394 83.0851 128.848 83.4497 131.366C83.9705 133.891 84.2765 135.938 84.3678 137.506C84.3289 138.443 84.1893 139.922 83.949 141.945C83.7086 143.968 83.4554 146.303 83.1891 148.95C82.9229 151.597 82.6501 154.4 82.3709 157.359C82.2543 160.17 82.3003 162.83 82.5088 165.342C82.7173 167.853 83.251 170.066 84.1099 171.981C85.1313 173.746 86.4941 174.822 88.1982 175.209C94.3186 174.695 99.7462 173.916 104.481 172.872C109.378 171.679 113.671 169.99 117.358 167.805C121.052 165.464 124.148 162.472 126.645 158.827C129.298 155.19 131.362 150.667 132.838 145.257C133.995 143.744 135.589 143.032 137.618 143.12C139.96 143.223 141.407 144.146 141.96 145.891C142.669 147.642 142.982 149.533 142.898 151.562C142.638 157.807 140.379 163.26 136.12 167.922C132.023 172.435 126.866 176.119 120.648 178.975C114.431 181.831 107.774 183.964 100.678 185.374C93.5888 186.628 87.0782 187.125 81.1464 186.865C77.3999 186.701 74.8761 185.34 73.5749 182.78C72.2801 180.065 71.5512 176.905 71.388 173.301C71.3874 169.547 71.5429 165.8 71.8545 162.06C72.1661 158.321 72.2924 155.276 72.2335 152.928C72.2659 152.147 72.2397 150.895 72.1549 149.171C72.0765 147.29 71.9233 145.329 71.6954 143.286C71.6235 141.249 71.4703 139.288 71.2359 137.401C71.0014 135.514 70.9004 134.18 70.9328 133.399ZM54.0649 76.3574C54.0455 76.8257 54.0131 77.6063 53.9677 78.6991C53.9224 79.7919 53.8803 80.8067 53.8414 81.7434C53.9586 82.6869 54.001 83.5489 53.9686 84.3295C53.9363 85.1101 53.9168 85.5784 53.9103 85.7346L55.0325 86.9567C56.6324 86.0883 58.1053 84.5105 59.4513 82.2234C60.9534 79.9432 62.3188 77.1877 63.5476 73.9571C64.7764 70.7265 65.8555 67.3329 66.785 63.7764C67.8771 60.0706 68.8099 56.4361 69.5833 52.8727C70.3568 49.3094 70.9611 46.0515 71.3964 43.0989C71.9878 40.1532 72.3224 37.7437 72.4002 35.8703C72.4261 35.2458 72.3966 34.0715 72.3118 32.3474C72.3831 30.6302 72.3471 29.612 72.204 29.2929L71.1304 26.9C67.2609 29.7022 64.2273 33.0885 62.0295 37.0587C59.8317 41.0289 58.1738 45.1791 57.0558 49.5094C55.9378 53.8397 55.2035 58.3431 54.8531 63.0197C54.5026 67.6964 54.2399 72.1423 54.0649 76.3574ZM122.961 247.579C123.383 237.432 126.035 228.164 130.918 219.775C135.639 211.537 141.579 204.055 148.739 197.33C156.049 190.768 164.032 184.94 172.688 179.845C181.5 174.756 190.049 170.36 198.335 166.656L206.029 145.175C205.21 146.078 203.584 147.571 201.152 149.654C198.876 151.744 196.437 153.983 193.836 156.372C191.241 158.604 188.727 160.762 186.295 162.845C183.869 164.772 182.172 166.105 181.203 166.845C179.265 168.324 176.927 170.021 174.189 171.934C171.451 173.847 168.482 175.672 165.283 177.409C162.245 178.997 159.14 180.347 155.966 181.459C152.799 182.415 149.966 182.839 147.468 182.729C144.034 182.579 141.803 181.699 140.775 180.09C139.91 178.332 139.542 175.892 139.672 172.77C139.775 170.272 140.038 167.703 140.461 165.062C141.039 162.429 141.071 159.771 140.557 157.09L150.719 132.667C152.182 131.324 153.6 129.196 154.972 126.285C156.5 123.38 157.95 120.472 159.322 117.56C160.85 114.656 162.361 112.141 163.857 110.017C165.509 107.9 167.193 106.879 168.91 106.954C170.784 107.036 172.322 107.65 173.525 108.798C174.885 109.952 175.523 111.544 175.438 113.574C175.373 115.135 175.081 116.529 174.561 117.758C174.203 118.837 173.595 120.296 172.737 122.135C170.533 126.262 168.338 130.154 166.154 133.812C164.125 137.477 162.174 141.145 160.302 144.817C158.585 148.495 157.096 152.34 155.835 156.351C154.737 160.213 154.087 164.564 153.886 169.403L154.823 169.444C154.823 169.444 155.301 169.231 156.257 168.803C157.219 168.22 158.26 167.64 159.378 167.063C160.66 166.337 161.941 165.611 163.222 164.885C164.503 164.159 165.625 163.505 166.588 162.921C175.406 157.677 183.249 151.451 190.117 144.244C196.99 136.882 203.796 129.281 210.533 121.443C211.196 120.534 211.771 119.855 212.259 119.407C212.747 118.96 213.15 118.664 213.469 118.522C213.794 118.223 214.191 118.084 214.659 118.105C215.127 118.125 215.83 118.156 216.766 118.197C218.952 118.293 220.649 118.836 221.859 119.827C223.232 120.669 224.013 122.58 224.202 125.56C224.274 127.597 224.014 130.088 223.422 133.033C222.838 135.823 222.097 138.606 221.199 141.382C220.302 144.158 219.327 146.93 218.274 149.699C217.383 152.319 216.593 154.396 215.904 155.93L215.758 159.442C216.077 159.3 216.789 159.096 217.895 158.832C219.157 158.574 220.025 158.378 220.5 158.242C221.443 158.127 224.054 157.381 228.334 156.004C232.613 154.628 237.208 153.186 242.118 151.681C247.191 150.026 251.868 148.51 256.147 147.134C260.427 145.757 263.122 144.858 264.235 144.438L264.703 144.458C265.796 144.506 266.716 144.937 267.464 145.752C268.368 146.574 268.798 147.531 268.752 148.624C268.707 149.716 268.278 150.636 267.465 151.382C266.808 152.136 265.999 152.804 265.036 153.387C264.08 153.815 263.046 154.239 261.934 154.659C260.822 155.08 259.869 155.429 259.075 155.707C257.957 156.284 256.363 156.996 254.295 157.844C252.233 158.536 249.853 159.37 247.154 160.347C244.618 161.174 241.918 162.151 239.057 163.277C236.195 164.403 233.415 165.454 230.716 166.431C224.205 168.805 217.142 171.311 209.526 173.949L185.694 250.793C184.602 254.499 182.645 258.323 179.823 262.266C177.157 266.216 174.036 269.833 170.459 273.117C166.882 276.402 162.944 278.966 158.645 280.811C154.496 282.819 150.314 283.731 146.099 283.547C141.728 283.356 138.031 282.021 135.006 279.542C131.974 277.22 129.519 274.219 127.638 270.54C125.752 267.017 124.502 263.208 123.89 259.115C123.122 255.015 122.812 251.17 122.961 247.579ZM135.606 248.132C135.521 250.162 135.584 252.432 135.792 254.944C136.157 257.462 136.837 259.916 137.832 262.306C138.828 264.695 140.074 266.705 141.57 268.334C143.222 269.971 145.375 270.847 148.029 270.963C151.463 271.113 154.631 270.157 157.531 268.094C160.581 266.195 163.264 263.731 165.579 260.705C168.043 257.841 170.127 254.726 171.831 251.36C173.535 247.993 174.91 245.004 175.956 242.391C176.502 240.538 177.315 237.915 178.394 234.521C179.467 231.284 180.462 228.043 181.378 224.799C182.451 221.561 183.354 218.629 184.089 216.002C184.817 213.532 185.191 212.062 185.21 211.594L185.249 210.657L193.264 181.449C186.936 183.205 180.393 186.359 173.636 190.912C167.035 195.472 160.948 200.836 155.375 207.004C149.802 213.173 145.146 219.851 141.407 227.038C137.825 234.232 135.891 241.263 135.606 248.132ZM257.762 176.06C257.768 175.904 257.869 175.361 258.064 174.431C258.259 173.501 258.454 172.571 258.649 171.641C258.85 170.555 259.045 169.625 259.234 168.852C259.429 167.922 259.532 167.301 259.545 166.989L259.584 166.052L259.643 164.647L263.533 150.037C266.42 144.533 269.375 139.267 272.399 134.238C275.579 129.216 279.123 124.835 283.031 121.096C286.939 117.357 291.362 114.423 296.298 112.293C301.391 110.17 307.449 109.262 314.474 109.569C315.878 109.631 317.576 110.174 319.567 111.2C321.72 112.076 323.785 113.183 325.762 114.521C327.896 115.865 329.792 117.277 331.451 118.758C333.272 120.089 334.629 121.321 335.52 122.455C340.391 121.886 343.92 121.649 346.105 121.745C348.297 121.684 350.174 121.688 351.735 121.757C353.302 121.669 354.954 121.428 356.691 121.035C358.583 120.649 361.435 119.757 365.246 118.36C367.932 117.695 370.524 117.418 373.022 117.527C374.115 117.575 375.11 118.087 376.008 119.065C377.061 120.05 377.562 121.166 377.511 122.415C377.446 123.976 376.841 125.358 375.697 126.559C374.552 127.76 373.193 128.482 371.619 128.726L342.078 134.002L339.454 135.061C338.948 143.484 336.741 151.442 332.833 158.935C328.925 166.427 323.885 172.932 317.714 178.448C311.542 183.965 304.483 188.27 296.535 191.363C288.594 194.3 280.409 195.584 271.979 195.215C271.355 195.188 270.344 195.065 268.945 194.848C267.54 194.786 266.604 194.745 266.135 194.725C262.759 193.17 260.447 190.488 259.197 186.68C258.104 182.878 257.625 179.338 257.762 176.06ZM272.553 181.399C272.677 182.186 273.285 182.604 274.377 182.652C275.47 182.7 276.251 182.734 276.719 182.754C282.339 183 288.173 181.848 294.221 179.297C300.276 176.591 305.739 173.076 310.61 168.754C315.643 164.282 319.763 159.223 322.969 153.576C326.337 147.781 328.144 141.916 328.39 135.984C323.395 135.765 318.416 135.157 313.453 134.157C308.497 133.002 303.677 132.322 298.994 132.117L298.76 132.107L278.47 151.864C277.332 152.909 276.412 154.354 275.71 156.2C275.008 158.047 274.455 160.056 274.052 162.228C273.649 164.399 273.324 166.575 273.078 168.754C272.831 170.932 272.672 172.88 272.6 174.598C272.581 175.066 272.536 176.159 272.464 177.876C272.393 179.593 272.423 180.768 272.553 181.399ZM368.888 194.529L378.793 148.043L379.065 141.486L385.04 110.546C385.535 109.942 386.406 109.667 387.655 109.722C388.91 109.62 389.772 109.58 390.24 109.6C391.489 109.655 392.875 110.185 394.397 111.19C396.081 112.045 396.895 113.176 396.836 114.581L396.175 130.504C396.819 130.063 397.951 129.175 399.57 127.838C401.19 126.501 402.89 125.09 404.672 123.604C406.61 122.124 408.389 120.717 410.008 119.38C411.627 118.043 412.684 117.073 413.178 116.469C414.96 114.983 417.045 113.744 419.431 112.754C421.974 111.771 424.339 111.327 426.524 111.422C431.051 111.62 434.505 113.179 436.886 116.098C439.423 119.025 440.601 122.673 440.419 127.045C440.406 127.357 440.319 127.588 440.156 127.737C440.156 127.737 440.15 127.893 440.137 128.205L440.098 129.142L429.538 168.796L428.751 187.764C433.59 187.976 438.624 187.258 443.853 185.61C449.245 183.813 454.422 181.537 459.384 178.782C464.346 176.028 469.012 172.869 473.383 169.307C477.759 165.589 481.583 162.002 484.854 158.548L485.791 158.589C486.884 158.637 487.726 159.065 488.318 159.873C489.073 160.531 489.427 161.407 489.382 162.5C489.239 165.934 487.926 169.318 485.442 172.65C483.12 175.833 480.103 178.829 476.39 181.638C472.832 184.454 468.657 187.086 463.864 189.535C459.227 191.991 454.606 194.057 450.001 195.732C445.553 197.414 441.198 198.709 436.938 199.618C432.678 200.526 429.065 200.916 426.099 200.786C423.133 200.656 420.815 200.007 419.143 198.839C417.471 197.671 416.203 196.208 415.337 194.45C414.634 192.542 414.172 190.489 413.951 188.29C413.885 186.097 413.905 183.752 414.008 181.254L414.135 178.21L425.152 133.18L425.473 125.452C421.726 125.288 417.912 126.764 414.029 129.878C410.303 132.999 406.86 136.837 403.699 141.391C400.695 145.951 398 150.603 395.614 155.347C393.383 160.098 391.735 164.014 390.669 167.096C390.312 168.175 389.762 170.106 389.021 172.888C388.28 175.671 387.533 178.61 386.779 181.705C386.181 184.807 385.589 187.753 385.004 190.542C384.42 193.332 384.023 195.348 383.815 196.59C383.932 197.533 383.591 198.222 382.791 198.656C382.147 199.097 381.351 199.453 380.401 199.725C379.458 199.84 378.44 199.873 377.347 199.826C376.411 199.785 375.63 199.75 375.006 199.723C373.601 199.662 372.206 199.366 370.82 198.836C369.435 198.306 368.781 197.105 368.859 195.231L368.888 194.529Z" fill="#F7FFC3"/>
</svg>
