<?xml version="1.0" encoding="utf-8"?>
<!-- Generator: Adobe Illustrator 28.2.0, SVG Export Plug-In . SVG Version: 6.00 Build 0)  -->
<svg version="1.1" id="레이어_1" xmlns="http://www.w3.org/2000/svg" xmlns:xlink="http://www.w3.org/1999/xlink" x="0px"
	 y="0px" viewBox="0 0 180 180" style="enable-background:new 0 0 180 180;" xml:space="preserve">
<style type="text/css">
	.st0{clip-path:url(#SVGID_00000148629494302830224150000017957679903721854361_);}
	.st1{fill:#FFFFFF;}
	.st2{fill:#272828;stroke:#000000;stroke-miterlimit:10;}
	.st3{fill:#F9F29E;stroke:#272828;stroke-width:3;stroke-miterlimit:10;}
	.st4{fill:#FFFFFF;stroke:#231815;stroke-width:3;stroke-miterlimit:10;}
	.st5{fill:#231815;}
	.st6{fill:#F9F29E;}
</style>
<g>
	<defs>
		<rect id="SVGID_1_" y="13.94" width="180" height="160.94"/>
	</defs>
	<clipPath id="SVGID_00000113325470450862930090000008402854039480692926_">
		<use xlink:href="#SVGID_1_"  style="overflow:visible;"/>
	</clipPath>
	<g style="clip-path:url(#SVGID_00000113325470450862930090000008402854039480692926_);">
		<path class="st1" d="M42.3,130.04c-2.75,3.68-5.63,8.05-4.52,12.5c0.64,2.53,2.49,4.56,4.48,6.24c3.41,2.87,7.55,5.07,12,5.26
			c4.44,0.19,9.15-1.92,11.19-5.88"/>
		<path class="st2" d="M41.49,129.57c-2.15,2.88-4.35,6.07-4.8,9.73c-0.43,3.47,1.13,6.5,3.54,8.9c4.67,4.64,11.64,8.1,18.29,6.33
			c3.24-0.87,6.14-2.9,7.76-5.88c0.56-1.07-1.05-2.02-1.62-0.94c-1.6,2.98-4.65,4.79-7.95,5.3c-3.84,0.58-7.7-0.77-10.92-2.79
			c-3.05-1.92-6.63-4.75-7.19-8.54c-0.64-4.13,2.24-7.99,4.56-11.12c0.72-0.98-0.9-1.92-1.62-0.94L41.49,129.57z"/>
		<path class="st3" d="M43.23,130.67c-0.77-1.56-1.05-3.35-1.19-5.09c-1.17-14.21,1.86-31.53,6.99-44.8
			c5.5-14.25,16.44-27.22,32.32-29.2c15.01-1.87,30.23,5.69,39.14,17.64c12.26,16.42,8.93,36.83-3.26,52.23
			c-10.89,13.74-31.38,27.65-49.83,26.12c-7.7-0.64-19.44-9.71-23.64-15.98c-0.19-0.3-0.38-0.6-0.53-0.9V130.67z"/>
		<path class="st4" d="M78.94,92.93c6.65,0,12.03-5.39,12.03-12.04s-5.39-12.04-12.03-12.04c-6.65,0-12.03,5.39-12.03,12.04
			S72.29,92.93,78.94,92.93z"/>
		<path class="st5" d="M83.7,90.84c3.59,0,6.5-2.91,6.5-6.5s-2.91-6.5-6.5-6.5c-3.59,0-6.5,2.91-6.5,6.5S80.11,90.84,83.7,90.84z"/>
		<path class="st4" d="M100.71,105.07c6.65,0,12.03-5.39,12.03-12.04c0-6.65-5.39-12.04-12.03-12.04c-6.65,0-12.03,5.39-12.03,12.04
			C88.67,99.68,94.06,105.07,100.71,105.07z"/>
		<path class="st5" d="M104.96,102.24c3.59,0,6.5-2.91,6.5-6.5c0-3.59-2.91-6.5-6.5-6.5c-3.59,0-6.5,2.91-6.5,6.5
			C98.47,99.33,101.37,102.24,104.96,102.24z"/>
		<path class="st6" d="M52.53,139.92c1.73-7.16,3.86-14.7,5.59-21.87c0.58-2.39,1.17-4.83,2.45-6.92c1.28-2.09,3.33-3.86,5.78-4.15
			c1.7-0.19,3.43,0.36,4.92,1.19c2.52,1.41,4.65,3.83,5.05,6.71c0.4,2.88-1.26,6.09-4.07,6.84c-0.45,0.11-0.94,0.17-1.39,0.04
			c-0.75-0.23-1.24-0.96-1.47-1.71c-0.79-2.58,0.9-5.39,3.24-6.75c2.34-1.36,5.12-1.58,7.82-1.71c1.68-0.09,3.47-0.13,4.88,0.79
			c1.22,0.81,1.92,2.24,2.17,3.69c0.53,3.36-1.22,6.73-3.73,9.03c-2.5,2.3-5.65,3.69-8.74,5.07c-7.63,3.37-14.84,6.39-22.47,9.76"/>
		<path class="st2" d="M53.43,140.18c1.05-4.32,2.18-8.61,3.31-12.91c1.13-4.3,1.9-8.44,3.24-12.52c1.17-3.58,3.94-7.6,8.25-6.71
			c3.43,0.7,7.01,3.81,7.19,7.48c0.08,1.6-0.56,3.28-1.75,4.37c-0.53,0.49-1.37,1.04-2.13,1.02c-1.19,0-1.49-1.53-1.41-2.47
			c0.32-4.24,5.24-5.5,8.68-5.79c1.86-0.15,4.37-0.58,6.01,0.55c1.64,1.13,1.98,3.43,1.7,5.22c-0.64,4.07-3.99,6.88-7.4,8.75
			c-4.2,2.3-8.76,4.01-13.15,5.92c-4.65,2-9.28,4-13.92,6.03c-1.11,0.49-0.15,2.11,0.94,1.62c5.18-2.28,10.38-4.51,15.58-6.75
			c2.56-1.11,5.1-2.21,7.65-3.34c2.28-1.02,4.58-2.09,6.59-3.58c3.58-2.64,6.46-6.96,5.5-11.57c-0.4-1.9-1.58-3.64-3.43-4.39
			c-2.22-0.89-4.97-0.51-7.29-0.23c-4.11,0.49-8.8,2.54-9.3,7.24c-0.19,1.81,0.51,4.13,2.49,4.6c1.79,0.43,3.77-0.85,4.86-2.17
			c5.84-7.2-4.88-17.89-12.37-13.46c-4.88,2.88-5.65,9.22-6.91,14.19c-1.56,6.15-3.24,12.25-4.75,18.4
			c-0.28,1.19,1.53,1.68,1.81,0.51L53.43,140.18z"/>
		<path class="st2" d="M54.53,30.94c0.83,5.52,1.94,11.01,3.31,16.42c0.3,1.17,2.11,0.68,1.81-0.51
			c-1.37-5.41-2.47-10.89-3.31-16.42C56.15,29.24,54.34,29.75,54.53,30.94z"/>
		<path class="st2" d="M36.03,49.11c2.43,2.83,5.09,5.45,7.93,7.84c0.4,0.32,0.94,0.38,1.34,0c0.34-0.34,0.4-1,0-1.34
			c-2.84-2.39-5.5-5.01-7.93-7.84c-0.34-0.38-1-0.34-1.34,0C35.66,48.15,35.69,48.71,36.03,49.11z"/>
		<path class="st2" d="M38.93,70.29C26.9,67.03,14.98,63.41,3.15,59.45C2,59.08,1.51,60.89,2.64,61.26
			c11.83,3.96,23.75,7.56,35.78,10.84C39.59,72.42,40.1,70.59,38.93,70.29z"/>
		<path class="st2" d="M144.36,88.78l28.21-0.75c1.21-0.04,1.21-1.92,0-1.88l-28.21,0.75C143.16,86.94,143.16,88.82,144.36,88.78z"
			/>
		<path class="st2" d="M142.07,106.31c4.26,0.25,8.46,0.96,12.56,2.11c1.17,0.32,1.68-1.49,0.51-1.81
			c-4.26-1.19-8.64-1.92-13.05-2.17c-1.21-0.08-1.21,1.81,0,1.89L142.07,106.31z"/>
		<path class="st2" d="M135.49,117.34c2.54,5.45,5.56,10.67,9.02,15.61c0.7,0.98,2.32,0.04,1.62-0.94
			c-3.45-4.92-6.46-10.14-9.02-15.61C136.6,115.3,134.98,116.25,135.49,117.34z"/>
	</g>
</g>
</svg>
