<?xml version="1.0" encoding="utf-8"?>
<!-- Generator: Adobe Illustrator 28.2.0, SVG Export Plug-In . SVG Version: 6.00 Build 0)  -->
<svg version="1.1" id="레이어_1" xmlns="http://www.w3.org/2000/svg" xmlns:xlink="http://www.w3.org/1999/xlink" x="0px"
	 y="0px" viewBox="0 0 50 50" style="enable-background:new 0 0 50 50;" xml:space="preserve">
<style type="text/css">
	.st0{clip-path:url(#SVGID_00000066490043141958969450000003189373137580877472_);}
	.st1{fill:none;stroke:#231815;stroke-width:3;stroke-miterlimit:10;}
	.st2{fill:#231815;}
</style>
<g>
	<defs>
		<polygon id="SVGID_1_" points="9.13,-11.1 61.18,19.56 42.09,67.96 -9.97,37.3 		"/>
	</defs>
	<clipPath id="SVGID_00000120537266231199039440000001729741744826181544_">
		<use xlink:href="#SVGID_1_"  style="overflow:visible;"/>
	</clipPath>
	<g style="clip-path:url(#SVGID_00000120537266231199039440000001729741744826181544_);">
		<path class="st1" d="M8.41,34.75c5.61,2.7,12.34,0.37,15.03-5.21s0.33-12.3-5.28-15c-5.61-2.7-12.34-0.37-15.03,5.21
			C0.43,25.33,2.8,32.05,8.41,34.75z"  stroke="#231815" stroke-miterlimit="10"/>
		<path id="eyes_x5F_black01" class="eyes_black01" d="M16.11,30.71c3.03,1.46,6.66,0.2,8.11-2.81c1.45-3.01,0.18-6.64-2.85-8.1
			c-3.03-1.46-6.66-0.2-8.11,2.81C11.81,25.62,13.08,29.25,16.11,30.71z"  fill="#231815"/>
		<path class="st1" d="M31.72,34.61c5.61,2.7,12.34,0.37,15.03-5.21s0.33-12.3-5.28-15c-5.61-2.7-12.34-0.37-15.03,5.21
			C23.75,25.19,26.11,31.91,31.72,34.61z"  stroke="#231815" stroke-miterlimit="10"/>
		<path id="eyes_x5F_black02" class="eyes_black02" d="M38.68,30.21c3.03,1.46,6.66,0.2,8.11-2.81c1.45-3.01,0.18-6.64-2.85-8.1
			c-3.03-1.46-6.66-0.2-8.11,2.81C34.38,25.12,35.66,28.75,38.68,30.21z"  fill="#231815"/>
	</g>
</g>
</svg>
