<svg width="80" height="80" viewBox="0 0 80 80" fill="none" xmlns="http://www.w3.org/2000/svg">
<rect width="80" height="80" rx="17" fill="#F4F4F4"/>
<g clip-path="url(#clip0_143_271)">
<path d="M39.6666 40.0001C39.6666 37.7899 40.5446 35.6703 42.1074 34.1075C43.6702 32.5447 45.7898 31.6667 48 31.6667C50.2101 31.6667 52.3297 32.5447 53.8925 34.1075C55.4553 35.6703 56.3333 37.7899 56.3333 40.0001C56.3333 42.2102 55.4553 44.3298 53.8925 45.8926C52.3297 47.4554 50.2101 48.3334 48 48.3334C45.7898 48.3334 43.6702 47.4554 42.1074 45.8926C40.5446 44.3298 39.6666 42.2102 39.6666 40.0001Z" fill="#1ABCFE"/>
<path d="M23 56.6666C23 54.4564 23.878 52.3368 25.4408 50.774C27.0036 49.2112 29.1232 48.3333 31.3333 48.3333H39.6667V56.6666C39.6667 58.8767 38.7887 60.9963 37.2259 62.5591C35.6631 64.1219 33.5435 64.9999 31.3333 64.9999C29.1232 64.9999 27.0036 64.1219 25.4408 62.5591C23.878 60.9963 23 58.8767 23 56.6666V56.6666Z" fill="#0ACF83"/>
<path d="M39.6666 15V31.6667H48C50.2101 31.6667 52.3297 30.7887 53.8925 29.2259C55.4553 27.6631 56.3333 25.5435 56.3333 23.3333C56.3333 21.1232 55.4553 19.0036 53.8925 17.4408C52.3297 15.878 50.2101 15 48 15H39.6666Z" fill="#FF7262"/>
<path d="M23 23.3333C23 25.5435 23.878 27.6631 25.4408 29.2259C27.0036 30.7887 29.1232 31.6667 31.3333 31.6667H39.6667V15H31.3333C29.1232 15 27.0036 15.878 25.4408 17.4408C23.878 19.0036 23 21.1232 23 23.3333V23.3333Z" fill="#F24E1E"/>
<path d="M23 40.0001C23 42.2102 23.878 44.3298 25.4408 45.8926C27.0036 47.4554 29.1232 48.3334 31.3333 48.3334H39.6667V31.6667H31.3333C29.1232 31.6667 27.0036 32.5447 25.4408 34.1075C23.878 35.6703 23 37.7899 23 40.0001V40.0001Z" fill="#A259FF"/>
</g>
<defs>
<clipPath id="clip0_143_271">
<rect width="33.3333" height="50" fill="white" transform="translate(23 15)"/>
</clipPath>
</defs>
</svg>
