<?xml version="1.0" encoding="utf-8"?>
<!-- Generator: Adobe Illustrator 28.2.0, SVG Export Plug-In . SVG Version: 6.00 Build 0)  -->
<svg version="1.1" id="레이어_1" xmlns="http://www.w3.org/2000/svg" xmlns:xlink="http://www.w3.org/1999/xlink" x="0px"
	 y="0px" viewBox="0 0 80 80" style="enable-background:new 0 0 80 80;" xml:space="preserve">
<style type="text/css">
	.st0{clip-path:url(#SVGID_00000055683278481543866100000002746589718396283289_);}
	.st1{fill:#231815;stroke:#000000;stroke-width:0.75;stroke-miterlimit:10;}
</style>
<g>
	<defs>
		<rect id="SVGID_1_" y="6.72" width="80" height="69.65"/>
	</defs>
	<clipPath id="SVGID_00000078030752202133992940000018376947127769994890_">
		<use xlink:href="#SVGID_1_"  style="overflow:visible;"/>
	</clipPath>
	<g style="clip-path:url(#SVGID_00000078030752202133992940000018376947127769994890_);">
		<path class="st1" d="M4.91,53.65c10.11-6.91,17.97-16.34,25.34-25.97c2.83-3.69,8.38-8.98,5.69-14.09
			c-1.02-1.91-3.12-3.01-5.27-2.44c-2.15,0.58-3.69,2.64-4.66,4.56c-2.8,5.6-4.35,12.1-5.21,18.25c-0.86,6.15-1.13,12.28-0.05,18.2
			c0.86,4.69,3.56,9.27,8.78,9.58c5.97,0.37,10.09-4.61,12.97-9.16c3.35-5.32,6.6-10.76,9.09-16.55c1.99-4.63,4.56-10.76,3.09-15.87
			c-0.58-2.07-2.04-3.8-4.19-4.29c-2.36-0.55-4.61,0.71-6.24,2.36c-1.89,1.94-2.99,4.42-4.01,6.89c-1.21,2.98-2.12,6.05-2.73,9.22
			c-1.13,5.89-1.44,12.25-0.13,18.14c1.18,5.21,4.61,10.29,10.25,11.13c5.63,0.84,10.19-3.95,13.73-7.49
			c3.85-3.85,7.1-8.35,9.56-13.2c2.46-4.84,4.53-10.26,5-15.61c0.21-2.38-0.73-4.82-3.2-5.58c-2.2-0.68-4.53,0.13-6.13,1.68
			c-1.94,1.91-2.99,4.69-3.88,7.23c-1,2.88-1.6,5.84-1.97,8.85c-0.73,6.21-0.16,12.49,0.97,18.59c0.55,3.04,1.28,6.02,2.1,8.98
			c0.45,1.62,2.96,0.94,2.52-0.71c-2.67-9.82-4.51-20.34-2.38-30.42c0.52-2.46,1.26-4.9,2.31-7.2c0.89-1.96,2.2-4.5,4.66-4.61
			c4.82-0.21,0.97,9.61,0.13,11.97c-3.07,8.48-8.49,16.1-15.51,21.78c-1.89,1.52-4.06,3.27-6.6,3.25c-2.23,0-4.35-1.18-5.84-2.78
			c-3.51-3.69-3.88-9.56-3.88-14.37c0-5.24,0.86-10.45,2.54-15.4c0.79-2.33,1.68-4.71,3.01-6.78c1.07-1.68,3.2-4.11,5.48-3.25
			c4.06,1.54,1.62,8.82,0.73,11.6c-1.57,5-3.98,9.69-6.6,14.22c-2.41,4.19-4.8,9.16-8.49,12.38c-3.69,3.22-9.07,3.43-11.42-1.28
			c-2.02-4.06-1.86-9.32-1.73-13.72c0.16-5.34,0.94-10.63,2.36-15.76c0.71-2.57,1.57-5.11,2.59-7.59c0.68-1.65,1.86-4.42,3.9-4.71
			c2.54-0.37,2.67,3.06,2.04,4.63c-0.92,2.3-2.8,4.32-4.27,6.26c-6,7.93-12.26,15.79-19.84,22.28c-1.89,1.62-3.88,3.14-5.92,4.53
			c-1.39,0.94-0.08,3.22,1.31,2.25V53.65z"/>
	</g>
</g>
</svg>
