<?xml version="1.0" encoding="utf-8"?>
<!-- Generator: Adobe Illustrator 28.2.0, SVG Export Plug-In . SVG Version: 6.00 Build 0)  -->
<svg version="1.1" id="레이어_1" xmlns="http://www.w3.org/2000/svg" xmlns:xlink="http://www.w3.org/1999/xlink" x="0px"
	 y="0px" viewBox="0 0 80 80" style="enable-background:new 0 0 80 80;" xml:space="preserve">
<style type="text/css">
	.st0{clip-path:url(#SVGID_00000173121000264988045320000012077267002089860758_);}
	.st1{fill:#231815;stroke:#000000;stroke-miterlimit:10;}
</style>
<g>
	<defs>
		<rect id="SVGID_1_" x="14.5" width="50.77" height="80"/>
	</defs>
	<clipPath id="SVGID_00000018946257662891463950000006548420659791583371_">
		<use xlink:href="#SVGID_1_"  style="overflow:visible;"/>
	</clipPath>
	<g style="clip-path:url(#SVGID_00000018946257662891463950000006548420659791583371_);">
		<path class="st1" d="M37.78,5.47c4.16,7.55,8.44,15.09,12.26,22.81c1.67,3.38,3.25,7.16,3.02,11.01c-0.23,3.85-2.55,6.78-5.9,8.5
			c-1.65,0.84-3.44,1.49-5.21,2.03c-1.97,0.61-4.11,1.04-6.15,0.61c-3.79-0.82-5.99-4.61-7.35-7.96c-0.78-1.94-3.48-10.07,1.21-8.78
			c3.15,0.86,5.43,4.24,6.85,6.98c1.98,3.83,3.15,8.29,3.97,12.49c0.88,4.5,1.01,9.17-0.74,13.47c-0.47,1.17,1.4,1.66,1.87,0.53
			c1.77-4.36,1.69-9.11,0.9-13.68c-0.76-4.3-1.98-8.78-3.81-12.77c-1.58-3.42-4.1-7.16-7.7-8.64c-1.36-0.57-2.98-0.76-4.26,0.1
			c-1.52,1.06-1.85,3.11-1.67,4.85c0.47,4.34,2.33,9.09,5.29,12.32c2.96,3.23,7.35,3.71,11.54,2.54c3.83-1.06,8.11-2.66,10.66-5.86
			c2.55-3.21,2.92-7.74,1.89-11.77c-1.25-4.93-3.99-9.4-6.36-13.84c-2.8-5.34-5.68-10.63-8.58-15.91c-0.6-1.09-2.3-0.12-1.67,0.98
			H37.78z"/>
		<path class="st1" d="M33.66,68.79l4.26,4.07l2.14,2.03c0.6,0.57,1.19,1.33,2.12,1.06c0.7-0.21,1.42-0.94,1.98-1.41
			c0.66-0.55,1.3-1.11,1.93-1.72c1.26-1.23,2.39-2.6,3.42-4.03c0.74-1.02-0.95-1.99-1.67-0.98c-0.9,1.23-1.87,2.39-2.96,3.46
			c-0.53,0.53-1.07,1.02-1.63,1.51c-0.27,0.23-0.56,0.47-0.86,0.7c-0.25,0.2-0.6,0.57-0.93,0.63l0.76,0.1
			c-0.29-0.14-0.54-0.47-0.78-0.68l-0.91-0.88L38.7,70.9l-3.66-3.48c-0.91-0.86-2.3,0.51-1.38,1.39V68.79z"/>
	</g>
</g>
</svg>
