<svg width="80" height="80" viewBox="0 0 80 80" fill="none" xmlns="http://www.w3.org/2000/svg">
<g clip-path="url(#clip0_143_231)">
<path d="M14.1667 0H65.8333C73.6667 0 80 6.49573 80 14.5299V65.4701C80 73.5043 73.6667 80 65.8333 80H14.1667C6.33333 80 0 73.5043 0 65.4701V14.5299C0 6.49573 6.33333 0 14.1667 0Z" fill="#FFEFC3"/>
<path d="M38.7667 48.0001H26.3667L23.8333 56.0343C23.7667 56.342 23.5 56.5471 23.2 56.513H16.9333C16.5667 56.513 16.4667 56.3078 16.5667 55.8976L27.3 24.2053C27.4 23.8634 27.5 23.4873 27.6333 23.0771C27.7667 22.3591 27.8333 21.607 27.8333 20.8548C27.8 20.6839 27.9333 20.5129 28.1 20.4788C28.1333 20.4788 28.1667 20.4788 28.2 20.4788H36.7333C37 20.4788 37.1333 20.5813 37.1667 20.7523L49.3333 55.9659C49.4333 56.342 49.3333 56.513 49 56.513H42.0333C41.8 56.5471 41.5667 56.3762 41.5 56.1369L38.7667 48.0001ZM28.3 41.06H36.7667C36.5667 40.342 36.3 39.4873 36 38.5984C35.7 37.6753 35.4 36.6839 35.1 35.6582C34.7667 34.5984 34.4667 33.5728 34.1333 32.5129C33.8 31.4531 33.5 30.4617 33.2333 29.4702C32.9667 28.5129 32.7333 27.6241 32.5 26.8035H32.4333C32.1333 28.2736 31.7667 29.7437 31.3 31.2138C30.8 32.8548 30.3 34.5642 29.7667 36.2736C29.3 38.0172 28.8 39.6241 28.3 41.06Z" fill="#FF9A00"/>
<path d="M56.6 26.3248C55.5 26.359 54.4333 25.9146 53.6333 25.1283C52.8666 24.2736 52.4666 23.1454 52.5 21.983C52.4666 20.8206 52.9 19.7266 53.7 18.9402C54.5 18.1539 55.5666 17.7437 56.6666 17.7437C57.9666 17.7437 58.9666 18.1539 59.7 18.9402C60.4333 19.7607 60.8333 20.8548 60.8 21.983C60.8333 23.1454 60.4333 24.2736 59.6333 25.1283C58.8666 25.9488 57.7333 26.3932 56.6 26.3248ZM52.8666 56.0001V29.6753C52.8666 29.3334 53 29.1966 53.3 29.1966H59.9C60.2 29.1966 60.3333 29.3676 60.3333 29.6753V56.0001C60.3333 56.3761 60.2 56.5471 59.9 56.5471H53.3666C53.0333 56.5471 52.8666 56.3419 52.8666 56.0001Z" fill="#FF9A00"/>
</g>
<defs>
<clipPath id="clip0_143_231">
<rect width="80" height="80" fill="white"/>
</clipPath>
</defs>
</svg>
