<svg width="45" height="45" viewBox="0 0 45 45" fill="none" xmlns="http://www.w3.org/2000/svg">
<g clip-path="url(#clip0_156_39)">
<path d="M13.1937 3.95733C14.2304 8.17781 14.9215 12.7959 14.4503 17.1387C13.9791 21.4815 10.8377 24.1422 7.79057 26.803C6.84816 27.6287 7.44502 29.005 8.48167 29.372C10.2408 30.0142 12.0628 30.1366 13.9162 30.3812C16.0838 30.6871 17.8115 31.3905 19.4136 32.8585C22.555 35.7333 25.4764 38.9139 28.4607 41.9417C29.3403 42.8286 31.2565 42.2169 31.1309 40.8713C30.4398 32.7667 29.6859 23.3471 36 16.9858C37.0052 15.9765 36 13.8357 34.4607 14.4168C30.534 15.9459 26.733 14.3556 23.7487 11.756C20.7644 9.15647 17.8743 6.31223 16.0838 2.76458C15.1728 0.990755 12.4712 2.5505 13.3822 4.29374C15.5183 8.48364 19.1937 12.123 22.9319 14.9979C26.3874 17.6892 31.1623 18.9737 35.4031 17.3528L33.8639 14.7838C26.9215 21.7873 27.2984 31.8186 28.0838 40.8407L30.7539 39.7703C27.5183 36.4979 24.4084 32.7973 20.7958 29.8919C19.3822 28.7603 17.7801 27.9652 15.9895 27.5982C13.7906 27.1394 11.5288 27.17 9.36125 26.4054L10.0523 28.9744C13.4764 26.0078 16.7749 22.7966 17.4974 18.2091C18.2827 13.2852 17.4031 7.93314 16.2408 3.16216C15.7696 1.23542 12.7539 2.06117 13.2251 3.98791L13.1937 3.95733Z" fill="#231815"/>
</g>
<defs>
<clipPath id="clip0_156_39">
<rect width="36" height="43" fill="white" transform="translate(6 2)"/>
</clipPath>
</defs>
</svg>
