<svg width="25" height="25" viewBox="0 0 25 25" fill="none" xmlns="http://www.w3.org/2000/svg">
<g clip-path="url(#clip0_156_44)">
<g clip-path="url(#clip1_156_44)">
<path d="M9.53849 3.78535C9.29857 7.84288 6.19021 10.8876 2.61 12.3891C1.42965 12.8888 1.34135 14.8176 2.81334 15.0471C7.0547 15.765 10.696 18.4018 12.7923 22.168C13.4781 23.4241 15.4232 22.6448 15.3426 21.3342C15.0855 17.9727 17.4925 14.7524 21.0357 14.8234C22.4536 14.8596 22.7257 12.7632 21.5218 12.1847C19.3006 11.1543 17.3356 9.61842 15.5723 7.89426C14.7027 7.06094 13.9054 6.14494 13.1804 5.14626C12.8495 4.67455 12.5578 4.20059 12.2841 3.70596C12.1247 3.42068 11.9292 2.92154 11.6314 2.6246C11.0386 2.0698 10.2076 2.25501 9.6745 2.73715C9.1414 3.2193 9.3337 3.93454 9.55318 4.49118C9.84482 5.22034 10.257 5.72663 11.124 5.75529C11.696 5.78128 12.3405 5.2142 12.395 4.64181C12.4253 4.2671 12.3592 3.91756 12.254 3.57028C12.0617 2.85503 11.1678 2.47459 10.4964 2.68988C9.74965 2.94876 9.43317 3.69326 9.64654 4.42692C9.76069 4.89147 9.65564 4.28899 9.67982 4.0913L10.9508 2.97782C11.3601 3.18983 11.7694 3.40185 12.2179 3.61161C12.4796 3.9499 12.293 3.82322 12.2179 3.61161C12.1217 3.38159 12.1429 3.14481 12.1758 3.57478L11.8591 4.57448C11.2119 4.59207 10.5676 4.64876 9.90229 4.68703C9.8391 4.63177 9.66461 4.40625 9.66461 4.40625C9.6165 4.29124 9.6165 4.29124 9.66461 4.40625L9.73378 4.53968C9.87511 4.84563 10.0375 5.16999 10.218 5.47369C10.5338 6.00516 10.8677 6.51596 11.2197 7.00609C12.05 8.09686 12.9737 9.12337 13.9696 10.0672C15.8563 11.8628 18.026 13.5047 20.3916 14.6249L20.8776 11.9862C15.8171 11.865 12.2714 16.6427 12.6181 21.4321L15.1684 20.5983C12.7502 16.2226 8.28734 13.1226 3.38676 12.2659L3.5901 14.9239C8.0074 13.0601 12.0223 9.27624 12.344 4.23251C12.3865 3.50377 12.0347 2.75844 11.237 2.60802C10.5778 2.46927 9.67138 2.95326 9.62886 3.68201L9.53849 3.78535Z" fill="#231815"/>
</g>
</g>
<defs>
<clipPath id="clip0_156_44">
<rect width="25" height="25" fill="white"/>
</clipPath>
<clipPath id="clip1_156_44">
<rect width="23" height="19" fill="white" transform="translate(10.5068) rotate(41.1667)"/>
</clipPath>
</defs>
</svg>
