<svg width="80" height="80" viewBox="0 0 80 80" fill="none" xmlns="http://www.w3.org/2000/svg">
<g clip-path="url(#clip0_143_241)">
<rect width="80" height="80" rx="15" fill="#DDECF7"/>
<path d="M14.1667 0H65.8333C73.6667 0 80 6.49573 80 14.5299V65.4701C80 73.5043 73.6667 80 65.8333 80H14.1667C6.33333 80 0 73.5043 0 65.4701V14.5299C0 6.49573 6.33333 0 14.1667 0Z" fill="#DDECF7"/>
<path d="M42 56.547H20.8667C20.5 56.547 20.3333 56.3419 20.3333 55.9317V20.9915C20.3 20.7522 20.4667 20.547 20.7 20.5128C20.7333 20.5128 20.7667 20.5128 20.8333 20.5128H27.3667C27.5333 20.4787 27.7333 20.6154 27.7333 20.7863C27.7333 20.8205 27.7333 20.8547 27.7333 20.8889V49.6069H43.1333C43.4667 49.6069 43.5667 49.7778 43.5 50.0855L42.5333 56.0342C42.5333 56.2052 42.4333 56.3419 42.3333 56.4445C42.2333 56.5128 42.1333 56.547 42 56.547Z" fill="#31A8FF"/>
<path d="M47.3334 29.1966H53.1667C53.5 29.1966 53.7667 29.4359 53.8667 29.7436C54.0001 29.983 54.1 30.2565 54.1334 30.53C54.2 30.8718 54.2667 31.2479 54.3 31.5898C54.3334 31.9659 54.3667 32.3761 54.3667 32.8206C55.3667 31.624 56.5667 30.6325 57.9334 29.8804C59.4667 29.0257 61.1667 28.6154 62.9 28.6496C63.1334 28.6154 63.3334 28.7864 63.3667 29.0257C63.3667 29.0599 63.3667 29.0941 63.3667 29.1624V35.8291C63.3667 36.1026 63.2001 36.2052 62.8334 36.2052C60.6667 36.0684 58.5001 36.4787 56.5334 37.3676C55.8667 37.6753 55.2334 38.0855 54.7334 38.6325V56.0684C54.7334 56.4103 54.6 56.5471 54.3 56.5471H47.8C47.5334 56.5812 47.3001 56.4103 47.2667 56.1368C47.2667 56.1026 47.2667 56.0342 47.2667 56V37.0599C47.2667 36.2394 47.2667 35.3847 47.2334 34.4958C47.2 33.6069 47.2 32.718 47.1667 31.8291C47.1334 31.077 47.0667 30.3248 46.9667 29.5727C46.9334 29.4018 47.0334 29.2308 47.2001 29.1966C47.2334 29.1624 47.2667 29.1624 47.3334 29.1966Z" fill="#31A8FF"/>
</g>
<defs>
<clipPath id="clip0_143_241">
<rect width="80" height="80" rx="15" fill="white"/>
</clipPath>
</defs>
</svg>
