<svg width="50" height="50" viewBox="0 0 50 50" fill="none" xmlns="http://www.w3.org/2000/svg">
<path d="M23.9453 30.2109C23.8932 30.1068 23.8021 29.9635 23.6719 29.7812C23.5677 29.5729 23.4375 29.4688 23.2812 29.4688C22.7865 29.4688 22.2786 29.6901 21.7578 30.1328C21.263 30.5495 20.7812 31.0573 20.3125 31.6562C19.8698 32.2292 19.4792 32.8151 19.1406 33.4141C18.8281 34.013 18.6328 34.4818 18.5547 34.8203C18.4505 35.1589 18.3984 35.5625 18.3984 36.0312C18.3984 36.5 18.3594 36.9427 18.2812 37.3594C18.2292 37.776 18.0859 38.1276 17.8516 38.4141C17.6432 38.7005 17.2656 38.8438 16.7188 38.8438C16.3802 38.8438 16.1458 38.7786 16.0156 38.6484C15.9115 38.4922 15.8594 38.2448 15.8594 37.9062C16.0417 36.6562 16.1979 35.6276 16.3281 34.8203C16.4844 34.013 16.6146 33.3099 16.7188 32.7109C16.849 32.0859 16.9661 31.487 17.0703 30.9141C17.2005 30.3151 17.3438 29.599 17.5 28.7656C17.6562 27.9323 17.8255 26.9167 18.0078 25.7188C18.1901 24.4948 18.4115 22.9453 18.6719 21.0703C18.6719 20.6797 18.6979 20.1328 18.75 19.4297C18.8021 18.7005 18.8932 17.9323 19.0234 17.125C19.1797 16.2917 19.375 15.4583 19.6094 14.625C19.8438 13.7656 20.1302 12.9974 20.4688 12.3203C20.8333 11.6432 21.25 11.0964 21.7188 10.6797C22.1875 10.237 22.7344 10.0156 23.3594 10.0156C23.8021 10.0156 24.1536 10.1719 24.4141 10.4844C24.7005 10.7708 24.9089 11.1224 25.0391 11.5391C25.1953 11.9557 25.2865 12.3984 25.3125 12.8672C25.3385 13.3099 25.3516 13.6745 25.3516 13.9609C25.3516 14.612 25.2995 15.237 25.1953 15.8359C25.0911 16.4089 24.9609 16.9948 24.8047 17.5938C24.6484 18.1667 24.4792 18.7526 24.2969 19.3516C24.1146 19.9245 23.9583 20.4974 23.8281 21.0703L21.3281 25.8359L19.9219 28.8828L20.1172 29.3125C20.6641 28.6615 21.224 28.1667 21.7969 27.8281C22.3698 27.4635 23.0859 27.2552 23.9453 27.2031C24.3359 27.1771 24.6615 27.2943 24.9219 27.5547C25.2083 27.8151 25.4427 28.1536 25.625 28.5703C25.8073 28.9609 25.9375 29.3646 26.0156 29.7812C26.1198 30.1979 26.1849 30.5365 26.2109 30.7969C26.2109 30.9531 26.1979 31.2005 26.1719 31.5391C26.1458 31.8776 26.1198 32.2682 26.0938 32.7109C26.0677 33.1536 26.0417 33.6224 26.0156 34.1172C26.0156 34.5859 26.0417 35.0286 26.0938 35.4453C26.1458 35.862 26.25 36.2266 26.4062 36.5391C26.5885 36.8255 26.8229 36.9948 27.1094 37.0469C28.125 36.9167 29.0234 36.7474 29.8047 36.5391C30.612 36.3047 31.3151 35.9922 31.9141 35.6016C32.513 35.1849 33.0078 34.6641 33.3984 34.0391C33.8151 33.4141 34.1276 32.6458 34.3359 31.7344C34.5182 31.474 34.7786 31.3438 35.1172 31.3438C35.5078 31.3438 35.7552 31.487 35.8594 31.7734C35.9896 32.0599 36.0547 32.3724 36.0547 32.7109C36.0547 33.7526 35.7161 34.6771 35.0391 35.4844C34.388 36.2656 33.5547 36.9167 32.5391 37.4375C31.5234 37.9583 30.4297 38.362 29.2578 38.6484C28.0859 38.9089 27.0052 39.0391 26.0156 39.0391C25.3906 39.0391 24.9609 38.8307 24.7266 38.4141C24.4922 37.9714 24.349 37.4505 24.2969 36.8516C24.2708 36.2266 24.2708 35.6016 24.2969 34.9766C24.3229 34.3516 24.3229 33.8438 24.2969 33.4531C24.2969 33.3229 24.2839 33.1146 24.2578 32.8281C24.2318 32.5156 24.1927 32.1901 24.1406 31.8516C24.1146 31.513 24.0755 31.1875 24.0234 30.875C23.9714 30.5625 23.9453 30.3411 23.9453 30.2109ZM20.7422 20.8359C20.7422 20.9141 20.7422 21.0443 20.7422 21.2266C20.7422 21.4089 20.7422 21.5781 20.7422 21.7344C20.7682 21.8906 20.7812 22.0339 20.7812 22.1641C20.7812 22.2943 20.7812 22.3724 20.7812 22.3984L20.9766 22.5938C21.237 22.4375 21.4714 22.1641 21.6797 21.7734C21.9141 21.3828 22.1224 20.9141 22.3047 20.3672C22.487 19.8203 22.6432 19.2474 22.7734 18.6484C22.9297 18.0234 23.0599 17.4115 23.1641 16.8125C23.2682 16.2135 23.3464 15.6667 23.3984 15.1719C23.4766 14.6771 23.5156 14.2734 23.5156 13.9609C23.5156 13.8568 23.5026 13.6615 23.4766 13.375C23.4766 13.0885 23.4635 12.9193 23.4375 12.8672L23.2422 12.4766C22.6172 12.9714 22.1354 13.5573 21.7969 14.2344C21.4583 14.9115 21.2109 15.6146 21.0547 16.3438C20.8984 17.0729 20.8073 17.8281 20.7812 18.6094C20.7552 19.3906 20.7422 20.1328 20.7422 20.8359Z" fill="black"/>
</svg>
