<svg width="161" height="163" viewBox="0 0 161 163" fill="none" xmlns="http://www.w3.org/2000/svg">
<path d="M23.4477 74.7396C21.3592 70.8208 20.2681 66.4396 20.2755 62.0022C20.2829 57.5648 21.3887 53.215 23.4902 49.3559C25.5917 45.4968 28.621 42.2535 32.2971 39.9267C35.9732 37.5998 40.1772 36.2648 44.5193 36.0453C45.7454 31.817 47.999 27.9847 51.0725 24.9016C54.146 21.8185 57.9404 19.5838 62.106 18.4036C66.2716 17.2234 70.6743 17.1356 74.9082 18.1483C79.1422 19.161 83.0711 21.2416 86.333 24.1983C90.1499 22.1017 94.4365 21.0305 98.794 21.0843C103.152 21.1381 107.439 22.3151 111.256 24.506C115.074 26.6969 118.298 29.8303 120.629 33.615C122.96 37.3996 124.322 41.7124 124.588 46.1523C128.748 47.455 132.533 49.8012 135.593 52.9745C138.653 56.1479 140.891 60.0463 142.099 64.3104C143.307 68.5745 143.447 73.0671 142.506 77.3741C141.565 81.6811 139.574 85.6639 136.715 88.9553C138.812 92.8697 139.912 97.2487 139.913 101.686C139.915 106.124 138.818 110.476 136.725 114.34C134.631 118.203 131.609 121.453 127.938 123.788C124.266 126.123 120.065 127.467 115.724 127.695C114.504 131.937 112.252 135.782 109.175 138.876C106.098 141.97 102.295 144.213 98.12 145.396C93.9447 146.579 89.5313 146.664 85.2885 145.644C81.0457 144.624 77.1107 142.531 73.8479 139.56C70.0361 141.651 65.7566 142.719 61.4062 142.667C57.0559 142.614 52.7756 141.442 48.9621 139.258C45.1487 137.075 41.9255 133.952 39.5916 130.178C37.2577 126.404 35.8885 122.101 35.611 117.67C31.4254 116.381 27.6145 114.036 24.5327 110.855C21.4508 107.674 19.1982 103.76 17.9844 99.4756C16.7706 95.1914 16.635 90.6769 17.5902 86.3521C18.5454 82.0273 20.5603 78.0326 23.4477 74.7396Z" fill="#F7FFC3"/>
</svg>
