<svg width="80" height="80" viewBox="0 0 80 80" fill="none" xmlns="http://www.w3.org/2000/svg">
<g clip-path="url(#clip0_143_261)">
<path d="M14.1667 0H65.8333C73.6667 0 80 6.49573 80 14.5299V65.4701C80 73.5043 73.6667 80 65.8333 80H14.1667C6.33333 80 0 73.5043 0 65.4701V14.5299C0 6.49573 6.33333 0 14.1667 0Z" fill="#E5DEF7"/>
<path d="M19 56.1025V20.923C19 20.6837 19.1 20.5469 19.3333 20.5469C19.9 20.5469 20.4333 20.5469 21.2 20.5127C22 20.4785 22.8333 20.4785 23.7333 20.4444C24.6333 20.4102 25.6 20.4102 26.6333 20.376C27.6667 20.3418 28.6667 20.3418 29.6667 20.3418C32.4 20.3418 34.6667 20.6837 36.5333 21.4016C38.2 21.9828 39.7333 22.9401 41 24.205C42.0667 25.2991 42.9 26.6324 43.4333 28.1025C43.9333 29.5384 44.2 31.0085 44.2 32.5469C44.2 35.4871 43.5333 37.9144 42.2 39.829C40.8667 41.7435 39 43.1794 36.8333 43.9999C34.5667 44.8546 32.0667 45.1623 29.3333 45.1623C28.5333 45.1623 28 45.1623 27.6667 45.1281C27.3333 45.0939 26.8667 45.0939 26.2333 45.0939V56.0683C26.2667 56.3076 26.1 56.5127 25.8667 56.5469C25.8333 56.5469 25.8 56.5469 25.7333 56.5469H19.4C19.1333 56.5469 19 56.4102 19 56.1025ZM26.2667 27.1452V38.6324C26.7333 38.6666 27.1667 38.7008 27.5667 38.7008H29.3333C30.6333 38.7008 31.9333 38.4956 33.1667 38.0854C34.2333 37.7777 35.1667 37.1281 35.9 36.2734C36.6 35.4187 36.9333 34.2563 36.9333 32.7521C36.9667 31.6922 36.7 30.6324 36.1667 29.7093C35.6 28.8204 34.8 28.1367 33.8333 27.7606C32.6 27.2478 31.2667 27.0427 29.9 27.0768C29.0333 27.0768 28.2667 27.0768 27.6333 27.111C26.9667 27.0768 26.5 27.111 26.2667 27.1452Z" fill="#9999FF"/>
<path d="M48.8667 29.128H54.7C55.0334 29.128 55.3 29.3674 55.4 29.675C55.5 29.9485 55.5667 30.2221 55.6 30.5297C55.6667 30.8716 55.7334 31.2477 55.7667 31.5896C55.8 31.9656 55.8334 32.3759 55.8334 32.8203C56.8334 31.6238 58.0334 30.6323 59.4 29.8802C60.9334 28.9913 62.7 28.5468 64.4667 28.5468C64.7 28.5126 64.9 28.6836 64.9334 28.9229C64.9334 28.9571 64.9334 28.9913 64.9334 29.0597V35.7263C64.9334 35.9998 64.7667 36.1024 64.4 36.1024C63.2 36.0682 61.9667 36.1708 60.8 36.4443C59.8334 36.6494 58.9 36.9571 58 37.3674C57.3667 37.675 56.7667 38.0853 56.3 38.6323V56.0682C56.3 56.4101 56.1667 56.5468 55.8667 56.5468H49.3C49.0334 56.581 48.8 56.4101 48.7667 56.1366C48.7667 56.1024 48.7667 56.034 48.7667 55.9998V37.0597C48.7667 36.2391 48.7667 35.3844 48.7334 34.4956C48.7 33.6067 48.7 32.7178 48.6667 31.8289C48.6667 31.0426 48.6 30.2904 48.5334 29.5041C48.5 29.3332 48.6 29.1622 48.7667 29.128C48.7667 29.0938 48.8334 29.0938 48.8667 29.128Z" fill="#9999FF"/>
</g>
<defs>
<clipPath id="clip0_143_261">
<rect width="80" height="80" fill="white"/>
</clipPath>
</defs>
</svg>
