<svg width="80" height="80" viewBox="0 0 80 80" fill="none" xmlns="http://www.w3.org/2000/svg">
<rect width="80" height="80" rx="17" fill="#FFEFC3"/>
<g clip-path="url(#clip0_143_208)">
<path fill-rule="evenodd" clip-rule="evenodd" d="M20.2203 48.3227L15 42.4844L30.9781 36.668L33.4648 43.5016L20.2203 48.3227Z" fill="#F89920"/>
<path fill-rule="evenodd" clip-rule="evenodd" d="M20.182 48.2171L19.9359 56.0452L35.914 50.2288L33.4273 43.396L20.182 48.2171Z" fill="#FFBE22"/>
<path fill-rule="evenodd" clip-rule="evenodd" d="M64.5859 32.1875C66.8656 38.793 59.5195 47.4719 48.0921 51.6313C36.6648 55.7906 25.4578 53.8633 22.9578 47.3375L64.5859 32.1875Z" fill="#F0670A"/>
<path fill-rule="evenodd" clip-rule="evenodd" d="M64.5859 32.1874C62.1015 25.6453 50.8844 23.7109 39.4453 27.8734C28.0062 32.0359 20.6547 40.7296 22.9578 47.3382L64.5859 32.1874Z" fill="#FFD00E"/>
<path fill-rule="evenodd" clip-rule="evenodd" d="M64.5844 32.1875C66.0062 36.607 58.0219 43.4898 46.6375 47.6359C35.2531 51.782 24.7109 51.6359 22.9594 47.3375L64.5844 32.1875Z" fill="#F89920"/>
<path fill-rule="evenodd" clip-rule="evenodd" d="M64.5859 32.1875C62.8594 27.8672 52.3102 27.7149 40.8984 31.8672C29.4867 36.0196 21.5047 42.9188 22.9586 47.336L64.5859 32.1875Z" fill="#FFBE22"/>
<path d="M45.3813 26.1915C44.2938 22.4321 43.057 20.3477 41.65 20.3868C38.9313 20.4649 38.0172 29.0868 38.8969 40.1352C39.7875 51.3008 42.0938 59.6899 44.9695 59.6133C46.6852 59.568 47.6508 56.8243 47.9899 52.0602C47.9977 51.9625 47.8883 52.0305 47.8945 51.9313C47.8945 51.9313 47.8805 51.7579 47.8164 51.7532L47.4516 51.7297C47.1531 56.3547 46.2484 59.0211 44.9547 59.0547C42.5906 59.1172 40.3078 50.8188 39.4547 40.0915C38.6141 29.5399 39.5188 21.0071 41.6656 20.9454C42.6813 20.9165 43.8219 22.836 44.8297 26.2993L45.3813 26.1915Z" fill="#F0670A"/>
<path d="M31.9062 23.5095C29.5898 24.9361 33.1093 32.8611 39.3961 41.9892C45.7492 51.2142 51.9414 57.3252 54.3945 55.8213C55.7656 54.9806 55.3812 52.4291 53.6148 48.5791C53.5757 48.4853 53.4882 48.4189 53.3859 48.4072C53.2836 48.3955 53.1843 48.4424 53.1265 48.5259C53.0687 48.6095 53.0609 48.7197 53.107 48.8111C54.7476 52.3916 55.1007 54.733 54.1015 55.3447C52.0859 56.5791 45.9609 50.5361 39.8562 41.6728C33.8531 32.9556 30.3703 25.1142 32.2 23.9869C33.1711 23.3884 35.4812 24.8322 38.5359 27.9517C38.5703 27.9861 38.7648 28.1884 38.8093 28.2017C38.9031 28.2306 38.8562 28.0299 38.932 27.9556C38.9851 27.9041 39.0156 27.833 39.0164 27.7588C39.0172 27.6845 38.9882 27.6134 38.9367 27.5603C35.6718 24.2189 33.2242 22.6955 31.9062 23.508V23.5095Z" fill="#F0670A"/>
</g>
<defs>
<clipPath id="clip0_143_208">
<rect width="50" height="50" fill="white" transform="translate(15 15)"/>
</clipPath>
</defs>
</svg>
